<svg width="262" height="365" viewBox="0 0 262 365" fill="none" xmlns="http://www.w3.org/2000/svg">
<path d="M71.1605 0.363865C71.1605 0.84905 75.042 3.43672 79.7321 6.34784C87.6568 11.038 88.4654 12.17 90.0827 19.7713C91.7 27.0491 91.5383 28.3429 88.7889 31.4157C85.7161 34.812 85.716 35.7824 87.8185 60.5269C88.9506 74.759 89.7593 86.4034 89.5975 86.7268C89.4358 87.0503 85.0691 86.4034 79.8938 85.2713C70.6753 83.4923 54.8259 84.7861 26.2 89.7997C21.5099 90.6083 19.7309 92.5491 10.5123 108.237C4.69012 117.94 0 126.35 0 126.835C0 127.321 2.42593 125.865 5.33704 123.601C9.86543 120.205 12.6148 119.396 20.3778 119.396C35.9037 119.396 36.3889 119.881 49.9741 140.259C56.9284 150.61 63.0741 159.99 63.8827 161.284C65.9852 165.003 53.2086 156.755 49.0037 151.903L45.284 147.698V151.742C45.284 165.327 63.721 198.643 85.3926 224.196C99.6247 240.854 98.816 239.398 96.2284 244.574C94.9346 247.161 93.8025 250.073 93.8025 251.043C93.8025 252.175 98.8161 261.717 104.8 272.391C110.946 282.903 121.135 301.502 127.765 313.47C134.235 325.438 144.1 341.773 149.437 349.697L159.302 364.091L160.273 336.759C161.243 310.559 163.831 295.195 168.036 290.181C169.006 289.049 174.505 287.594 180.327 287.108C189.707 286.138 192.133 285.168 200.22 278.86C205.395 274.979 213.643 267.216 218.495 261.555C226.743 252.175 228.361 248.779 236.77 225.49C242.269 209.802 248.091 196.864 251.326 192.335C255.854 186.19 262 172.443 262 168.561C262 167.915 259.574 170.502 256.825 174.06C253.914 177.78 251.164 180.691 250.517 180.691C250.032 180.853 251.002 173.09 252.62 163.386C254.722 151.256 255.369 139.45 255.207 124.248L254.722 102.414L252.458 112.765C250.356 122.307 250.032 122.792 247.93 120.043C241.946 112.28 236.123 97.4009 231.11 78.1552L225.773 57.2923L214.128 43.3836C207.659 35.6207 201.514 28.6664 200.22 27.696C198.279 25.917 157.2 7.80338 155.421 7.80338C155.098 7.80338 156.23 9.42067 158.17 11.5231C163.507 17.1836 170.3 33.6799 171.432 43.7071C172.241 52.2787 172.079 52.7639 169.653 50.4997C168.036 49.0441 163.669 44.0305 159.788 39.017C153.48 31.0923 150.407 28.9898 129.383 18.4775C110.622 9.09722 103.021 6.18611 91.3765 3.92191C83.4519 2.46635 75.5272 0.84905 74.0716 0.363865C72.4543 -0.121321 71.1605 -0.121321 71.1605 0.363865ZM224.802 200.26C227.39 206.568 224.964 213.522 219.465 215.463C209.762 218.859 204.263 203.98 212.673 197.349C217.848 193.306 222.377 194.438 224.802 200.26ZM162.052 199.775C166.742 203.98 165.933 213.845 160.596 217.889C153.319 223.711 144.747 218.859 145.07 209.155C145.394 198.643 154.936 193.306 162.052 199.775ZM153.642 281.61C153.642 283.874 149.275 279.831 143.615 272.391L138.44 265.76L146.041 273.038C150.246 276.919 153.642 280.801 153.642 281.61Z" fill="url(#paint0_linear)"/>
<defs>
<linearGradient id="paint0_linear" x1="198.926" y1="346.301" x2="98.6543" y2="0.202165" gradientUnits="userSpaceOnUse">
<stop stop-color="#111111"/>
<stop offset="1" stop-color="#1BFFCD"/>
</linearGradient>
</defs>
</svg>
