<svg width="318" height="330" viewBox="0 0 318 330" fill="none" xmlns="http://www.w3.org/2000/svg">
<g filter="url(#filter0_d)">
<path fill-rule="evenodd" clip-rule="evenodd" d="M9.38146 49.5C1.78146 12.4 1.98146 8.80001 11.5815 2.20001C13.4815 0.900012 16.3815 0 18.5815 0C24.7815 0 30.1815 3.70001 54.1815 24.2C89.0815 54 95.7815 61.6 113.581 92C129.481 119 129.581 119 159.081 119C178.881 119 179.881 118.9 184.381 116.6C191.381 113 194.181 109.4 206.881 88C222.881 60.9 228.581 54.4 260.081 27.2C288.081 3.00001 293.681 -0.699982 300.681 0.300018C307.681 1.20002 311.981 5.40002 313.681 12.8C314.382 16 313.281 22.7 308.181 48.1C299.081 93.5 297.081 97.4 268.081 129C256.981 141.1 249.581 149.9 248.381 152.7C245.381 159.5 245.081 166.3 247.481 176C250.881 189.9 252.081 208.1 250.781 225.5C249.081 248.5 245.481 258.9 235.181 271C232.081 274.6 227.481 281.5 224.881 286.5C212.381 310 187.281 325.5 168.781 321C161.581 319.3 155.581 319.3 148.381 321C130.081 325.4 105.581 310.5 93.2815 287.5C90.6815 282.5 85.9815 275.6 82.9815 272C76.7815 264.9 71.5815 254.8 69.2815 245.5C66.9815 236.8 65.2815 213 66.0815 202C66.3815 196.8 67.8815 186.9 69.2815 180C72.0815 165.7 71.9815 158.6 68.6815 152.1C67.4815 149.8 58.3815 139.1 48.3815 128.2C20.9815 98.2 18.1815 92.6 9.38146 49.5ZM157.594 286.394C154.657 286.296 151.812 285.829 149.5 285C144.8 283.3 143 283.1 143 284.5C143 285 144.3 286.9 145.9 288.8C147.6 290.6 150.9 295.5 153.3 299.6C155.7 303.7 158.3 307 159.1 307C159.416 307 159.92 306.594 160.518 305.905C161.434 304.851 162.572 303.135 163.6 301.2C165.3 298 168.8 292.8 171.5 289.7C176.8 283.3 176.2 282.3 168.5 284.9C165.343 286.028 161.391 286.52 157.594 286.394Z" fill="white"/>
</g>
<defs>
<filter id="filter0_d" x="0" y="0" width="317.872" height="329.777" filterUnits="userSpaceOnUse" color-interpolation-filters="sRGB">
<feFlood flood-opacity="0" result="BackgroundImageFix"/>
<feColorMatrix in="SourceAlpha" type="matrix" values="0 0 0 0 0 0 0 0 0 0 0 0 0 0 0 0 0 0 127 0"/>
<feOffset dy="4"/>
<feGaussianBlur stdDeviation="2"/>
<feColorMatrix type="matrix" values="0 0 0 0 1 0 0 0 0 1 0 0 0 0 1 0 0 0 0.25 0"/>
<feBlend mode="normal" in2="BackgroundImageFix" result="effect1_dropShadow"/>
<feBlend mode="normal" in="SourceGraphic" in2="effect1_dropShadow" result="shape"/>
</filter>
</defs>
</svg>
