<svg width="125" height="125" viewBox="0 0 125 125" fill="none" xmlns="http://www.w3.org/2000/svg">
<rect width="125" height="125" rx="62.5" fill="black"/>
<g clip-path="url(#clip0_901_17)">
<path d="M60.397 89.6C57.9223 91.9893 54.9783 93.952 51.565 95.488C48.1517 97.024 44.141 97.792 39.533 97.792C35.693 97.792 32.4503 97.0667 29.805 95.616C27.245 94.1653 25.2823 92.2453 23.917 89.856C22.637 87.3813 21.997 84.6933 21.997 81.792C21.997 77.7813 23.1063 73.8987 25.325 70.144C27.5437 66.304 30.6583 62.4213 34.669 58.496C38.765 54.5707 43.501 50.5173 48.877 46.336C54.3383 42.0693 60.1837 37.5893 66.413 32.896L66.541 33.28C63.725 33.3653 61.2503 34.0053 59.117 35.2C56.9837 36.3093 55.0637 37.5893 53.357 39.04C51.6503 40.4907 49.9863 41.7707 48.365 42.88C46.829 43.904 45.165 44.416 43.373 44.416C41.7517 44.416 40.429 44.0747 39.405 43.392C38.4663 42.624 37.3997 42.24 36.205 42.24C35.0103 42.24 34.0717 42.6667 33.389 43.52C32.7917 44.3733 32.1517 45.7813 31.469 47.744L30.445 50.816H28.013L30.957 41.472C32.5783 36.1813 34.4557 32.6827 36.589 30.976C38.7223 29.2693 40.8983 28.416 43.117 28.416C44.8237 28.416 46.3597 28.7147 47.725 29.312C49.0903 29.824 50.5837 30.3787 52.205 30.976C53.9117 31.488 56.0877 31.744 58.733 31.744C59.8423 31.744 61.2077 31.616 62.829 31.36C64.5357 31.0187 66.3703 30.3787 68.333 29.44L69.741 27.008L72.429 28.288C68.333 32.7253 64.5357 37.3333 61.037 42.112C57.6237 46.8907 54.637 51.712 52.077 56.576C49.517 61.3547 47.5117 65.9627 46.061 70.4C44.6103 74.8373 43.885 78.976 43.885 82.816C43.885 85.632 44.3543 87.808 45.293 89.344C46.2317 90.88 47.853 91.648 50.157 91.648C51.693 91.648 53.229 91.3067 54.765 90.624C56.3863 89.9413 57.9223 89.0027 59.373 87.808L60.397 89.6ZM82.029 88.576C84.589 88.576 86.8503 87.8933 88.813 86.528C90.7757 85.1627 92.4823 83.328 93.933 81.024C95.469 78.72 96.6637 76.1173 97.517 73.216C98.4557 70.2293 99.1383 67.1573 99.565 64C99.9917 60.8427 100.162 57.728 100.077 54.656C97.4317 53.4613 94.701 52.096 91.885 50.56C89.069 48.9387 86.6797 46.9333 84.717 44.544C82.7543 42.0693 81.773 39.168 81.773 35.84C81.773 33.9627 82.413 32.1707 83.693 30.464C85.0583 28.7573 87.149 27.904 89.965 27.904C92.4397 27.904 94.4877 28.7573 96.109 30.464C97.7303 32.1707 99.0103 34.304 99.949 36.864C100.888 39.424 101.57 42.112 101.997 44.928C102.424 47.744 102.68 50.2613 102.765 52.48C102.936 56.6613 102.68 60.8853 101.997 65.152C101.314 69.4187 100.205 73.5147 98.669 77.44C97.2183 81.28 95.2983 84.736 92.909 87.808C90.5197 90.88 87.7037 93.312 84.461 95.104C81.3037 96.896 77.7197 97.792 73.709 97.792C70.8077 97.792 67.9917 97.28 65.261 96.256C62.5303 95.232 60.3117 93.44 58.605 90.88C56.8983 88.32 56.045 84.7787 56.045 80.256C56.045 76.3307 56.7277 72.576 58.093 68.992C59.5437 65.3227 61.3357 62.08 63.469 59.264C65.6877 56.3627 67.9917 54.1013 70.381 52.48C72.8557 50.8587 75.117 50.048 77.165 50.048C78.7863 50.048 79.9383 50.5173 80.621 51.456C81.3037 52.3947 81.7303 53.5467 81.901 54.912C82.157 56.192 82.285 57.3013 82.285 58.24C82.285 63.616 81.0903 68.864 78.701 73.984C76.3117 79.0187 72.813 83.5413 68.205 87.552L67.309 85.376C70.9783 81.9627 73.8797 77.8667 76.013 73.088C78.2317 68.3093 79.341 63.5733 79.341 58.88C79.341 57.088 79.1703 55.6373 78.829 54.528C78.4877 53.4187 77.9757 52.864 77.293 52.864C76.1837 52.864 75.0743 53.888 73.965 55.936C72.8557 57.8987 71.917 60.4587 71.149 63.616C70.4663 66.688 70.125 70.016 70.125 73.6C70.125 76.416 70.5517 78.976 71.405 81.28C72.2583 83.4987 73.581 85.2907 75.373 86.656C77.165 87.936 79.3837 88.576 82.029 88.576Z" fill="white"/>
</g>
<defs>
<clipPath id="clip0_901_17">
<rect width="81" height="71" fill="white" transform="translate(22 27)"/>
</clipPath>
</defs>
</svg>
